<?xml version="1.0"?>
<svg version="1.1" xmlns="http://www.w3.org/2000/svg" width="145" height="45" style=""><path fill="#f24f2e" d="M18.5,35.38l0-15.12l-2.38-0.56l0-1.54l5.18-0.14l3.22,0c3.5,0,6.02,1.54,6.02,4.9c0,2.52-1.288,3.948-3.64,4.536c2.94,0.672,4.34,2.324,4.34,4.564c0,3.92-2.52,5.6-7.14,5.6l-7.98,0l0-1.68z M21.3,26.42l2.1,0c2.52,0,4.2-0.98,4.2-3.22c0-1.96-1.4-2.94-3.22-2.94l-3.08,0l0,6.16z M21.3,35.38l2.94,0c2.66,0,4.06-1.12,4.06-3.22c0-2.8-1.82-3.64-4.9-3.64l-2.1,0l0,6.86z M43.0168,36.08l0,1.54l-7.756,0l0-1.54l2.38-0.7l0-17.08l-2.38-0.56l0-1.54l5.236-0.14l0,19.32z M53.3376,22.5c4.2,0,6.58,2.94,6.58,7.42c0,4.76-2.8,7.98-7,7.98s-6.72-2.52-6.72-7.56c0-4.76,2.94-7.84,7.14-7.84z M53.1976,24.74c-2.8,0-4.06,1.82-4.06,5.46c0,3.36,1.12,5.46,3.92,5.46s3.92-1.96,3.92-5.6c0-3.08-0.98-5.32-3.78-5.32z M71.2184,22.5c4.2,0,6.58,2.94,6.58,7.42c0,4.76-2.8,7.98-7,7.98s-6.72-2.52-6.72-7.56c0-4.76,2.94-7.84,7.14-7.84z M71.0784,24.74c-2.8,0-4.06,1.82-4.06,5.46c0,3.36,1.12,5.46,3.92,5.46s3.92-1.96,3.92-5.6c0-3.08-0.98-5.32-3.78-5.32z M96.5192,24.46l-2.716,0.392s0.756,1.008,0.756,2.828c0,3.78-2.52,5.46-6.16,5.46c-1.26,0-2.1-0.252-2.1-0.252l-0.14,2.632l4.34,0c3.64,0,5.6,1.4,5.6,4.06c0,3.08-2.38,5.04-7.28,5.04c-3.92,0-6.72-0.98-6.72-4.06c0-2.52,2.94-3.5,2.94-3.5s-1.68-0.14-1.68-1.596c0-0.924,1.456-3.164,1.456-3.164s-2.156-0.98-2.156-4.34c0-3.64,2.52-5.46,6.16-5.46c1.82,0,2.8,0.532,2.8,0.532l4.9-0.112l0,1.54z M88.6792,24.46c-2.24,0-3.22,1.12-3.22,3.36c0,1.96,0.98,3.36,3.08,3.36c2.24,0,3.22-0.98,3.22-3.36c0-2.1-0.98-3.36-3.08-3.36z M89.7992,37.62l-3.08,0s-1.82,0.84-1.82,2.52c0,1.96,1.68,2.38,4.34,2.38c2.8,0,4.2-0.84,4.2-2.66s-1.4-2.24-3.64-2.24z M112.86,30.62l-9.66,0c0,3.08,1.652,5.04,4.06,5.04c2.8,0,4.704-1.54,4.704-1.54l0.98,1.456s-2.604,2.324-5.964,2.324c-4.48,0-6.72-2.94-6.72-7.56c0-4.48,2.8-7.84,6.86-7.84s5.88,2.38,5.88,6.58c0,0.7-0.14,1.484-0.14,1.54z M103.312,28.52l6.72,0c0-2.1-0.812-3.836-3.052-3.836s-3.5,1.736-3.668,3.836z M121.9208,22.78l0.252,2.044c0.7-0.784,2.324-2.324,4.228-2.324c1.4,0,2.52,0.42,2.52,0.42l-0.14,4.06l-1.82,0l-0.42-2.1c-2.1,0-3.444,1.372-4.06,2.184l0,8.316l2.8,0.7l0,1.54l-7.98,0l0-1.54l2.38-0.7l0-10.36l-2.38-0.56l0-1.54z"/><path fill="#" d=""/></svg>
